<svg xmlns="http://www.w3.org/2000/svg" width="805" height="600"><rect width="805" height="600" x="0" y="0" fill="#FFFFFF" id="background"/><g transform="translate(10,10)" id="visualization"><g><rect x="0" y="97.5" height="138.7" width="5" fill="black"><title>Canon: 38</title></rect><rect x="0" y="241.2" height="113.14999999999998" width="5" fill="black"><title>Sony: 31</title></rect><rect x="0" y="359.34999999999997" height="105.85000000000002" width="5" fill="black"><title>Nikon: 29</title></rect><rect x="780" y="2.2737367544323206e-13" height="40.14999999999998" width="5" fill="black"><title>Nikon Z9: 11</title></rect><rect x="780" y="45.150000000000205" height="32.85000000000001" width="5" fill="black"><title>Canon EOS R5: 9</title></rect><rect x="780" y="83.00000000000021" height="25.55000000000001" width="5" fill="black"><title>Nikon Z8: 7</title></rect><rect x="780" y="113.55000000000022" height="25.550000000000026" width="5" fill="black"><title>Sony Alpha 1: 7</title></rect><rect x="780" y="144.10000000000025" height="21.899999999999977" width="5" fill="black"><title>Sony Alpha 7 IV: 6</title></rect><rect x="780" y="171.00000000000023" height="18.25" width="5" fill="black"><title>Canon EOS R5 II: 5</title></rect><rect x="780" y="194.25000000000023" height="10.949999999999989" width="5" fill="black"><title>Canon EOS R3: 3</title></rect><rect x="780" y="210.20000000000022" height="10.949999999999989" width="5" fill="black"><title>Sony Alpha 7 III: 3</title></rect><rect x="780" y="226.1500000000002" height="10.950000000000045" width="5" fill="black"><title>Sony Alpha 7R V: 3</title></rect><rect x="780" y="242.10000000000025" height="7.300000000000011" width="5" fill="black"><title>Canon EOS 1D X III: 2</title></rect><rect x="780" y="254.40000000000026" height="7.300000000000011" width="5" fill="black"><title>Canon EOS 5D IV: 2</title></rect><rect x="780" y="266.7000000000003" height="7.300000000000011" width="5" fill="black"><title>Canon EOS 6D: 2</title></rect><rect x="780" y="279.0000000000003" height="7.300000000000011" width="5" fill="black"><title>Canon EOS R6: 2</title></rect><rect x="780" y="291.3000000000003" height="7.300000000000011" width="5" fill="black"><title>Canon EOS R6 II: 2</title></rect><rect x="780" y="303.6000000000003" height="7.300000000000011" width="5" fill="black"><title>Canon EOS R8: 2</title></rect><rect x="780" y="315.9000000000003" height="7.300000000000011" width="5" fill="black"><title>Nikon D500: 2</title></rect><rect x="780" y="328.20000000000033" height="7.300000000000011" width="5" fill="black"><title>Nikon D850: 2</title></rect><rect x="780" y="340.50000000000034" height="7.300000000000011" width="5" fill="black"><title>Sony Alpha 7C: 2</title></rect><rect x="780" y="352.80000000000035" height="7.2999999999999545" width="5" fill="black"><title>Sony Alpha 7C II: 2</title></rect><rect x="780" y="365.1000000000003" height="7.2999999999999545" width="5" fill="black"><title>Sony Alpha 7R IV: 2</title></rect><rect x="780" y="377.40000000000026" height="3.6499999999999773" width="5" fill="black"><title>Canon EOS 5D: 1</title></rect><rect x="780" y="386.05000000000024" height="3.6499999999999773" width="5" fill="black"><title>Canon EOS 70D: 1</title></rect><rect x="780" y="394.7000000000002" height="3.6499999999999773" width="5" fill="black"><title>Canon EOS 77D: 1</title></rect><rect x="780" y="403.3500000000002" height="3.650000000000034" width="5" fill="black"><title>Canon EOS 7D II: 1</title></rect><rect x="780" y="412.0000000000002" height="3.6499999999999773" width="5" fill="black"><title>Canon EOS 80D: 1</title></rect><rect x="780" y="420.6500000000002" height="3.6499999999999773" width="5" fill="black"><title>Canon EOS 90D: 1</title></rect><rect x="780" y="429.3000000000002" height="3.6499999999999773" width="5" fill="black"><title>Canon EOS R50: 1</title></rect><rect x="780" y="437.95000000000016" height="3.6499999999999773" width="5" fill="black"><title>Canon EOS R7: 1</title></rect><rect x="780" y="446.60000000000014" height="3.6499999999999773" width="5" fill="black"><title>Canon EOS Rebel T6: 1</title></rect><rect x="0" y="470.2" height="3.650000000000034" width="5" fill="black"><title>Leica: 1</title></rect><rect x="780" y="455.2500000000001" height="3.6499999999999773" width="5" fill="black"><title>Leica SL2: 1</title></rect><rect x="780" y="463.9000000000001" height="3.6499999999999773" width="5" fill="black"><title>Nikon D3500: 1</title></rect><rect x="780" y="472.55000000000007" height="3.6499999999999773" width="5" fill="black"><title>Nikon D5200: 1</title></rect><rect x="780" y="481.20000000000005" height="3.6499999999999773" width="5" fill="black"><title>Nikon D5300: 1</title></rect><rect x="780" y="489.85" height="3.6499999999999773" width="5" fill="black"><title>Nikon D610: 1</title></rect><rect x="780" y="498.5" height="3.6499999999999773" width="5" fill="black"><title>Nikon D780: 1</title></rect><rect x="780" y="507.15" height="3.6499999999999773" width="5" fill="black"><title>Nikon Z50: 1</title></rect><rect x="780" y="515.8" height="3.6499999999999773" width="5" fill="black"><title>Nikon Zf: 1</title></rect><rect x="0" y="478.85" height="3.6499999999999773" width="5" fill="black"><title>Olympus: 1</title></rect><rect x="780" y="524.4499999999999" height="3.6499999999999773" width="5" fill="black"><title>Olympus OM-D E-M1: 1</title></rect><rect x="780" y="533.0999999999999" height="3.6499999999999773" width="5" fill="black"><title>Sony Alpha 6400: 1</title></rect><rect x="780" y="541.7499999999999" height="3.6499999999999773" width="5" fill="black"><title>Sony Alpha 6600: 1</title></rect><rect x="780" y="550.3999999999999" height="3.6499999999999773" width="5" fill="black"><title>Sony Alpha 6700: 1</title></rect><rect x="780" y="559.0499999999998" height="3.6499999999999773" width="5" fill="black"><title>Sony Alpha 7S III: 1</title></rect><rect x="780" y="567.6999999999998" height="3.6499999999999773" width="5" fill="black"><title>Sony Alpha 9: 1</title></rect><rect x="780" y="576.3499999999998" height="3.6499999999999773" width="5" fill="black"><title>Sony RX10 III: 1</title></rect></g><g fill="none" stroke-opacity="1"><g style="mix-blend-mode: multiply;"><path d="M5,163.2C392.5,163.2,392.5,245.75000000000026,780,245.75000000000026" stroke="#1f77b4" stroke-width="7.3"/><title>Canon → Canon EOS 1D X III: 2</title></g><g style="mix-blend-mode: multiply;"><path d="M5,205.17500000000004C392.5,205.17500000000004,392.5,379.22500000000025,780,379.22500000000025" stroke="#1f77b4" stroke-width="3.65"/><title>Canon → Canon EOS 5D: 1</title></g><g style="mix-blend-mode: multiply;"><path d="M5,170.5C392.5,170.5,392.5,258.05000000000024,780,258.05000000000024" stroke="#1f77b4" stroke-width="7.3"/><title>Canon → Canon EOS 5D IV: 2</title></g><g style="mix-blend-mode: multiply;"><path d="M5,177.8C392.5,177.8,392.5,270.35000000000025,780,270.35000000000025" stroke="#1f77b4" stroke-width="7.3"/><title>Canon → Canon EOS 6D: 2</title></g><g style="mix-blend-mode: multiply;"><path d="M5,208.82500000000005C392.5,208.82500000000005,392.5,387.8750000000002,780,387.8750000000002" stroke="#1f77b4" stroke-width="3.65"/><title>Canon → Canon EOS 70D: 1</title></g><g style="mix-blend-mode: multiply;"><path d="M5,212.47500000000005C392.5,212.47500000000005,392.5,396.5250000000002,780,396.5250000000002" stroke="#1f77b4" stroke-width="3.65"/><title>Canon → Canon EOS 77D: 1</title></g><g style="mix-blend-mode: multiply;"><path d="M5,216.12500000000006C392.5,216.12500000000006,392.5,405.1750000000002,780,405.1750000000002" stroke="#1f77b4" stroke-width="3.65"/><title>Canon → Canon EOS 7D II: 1</title></g><g style="mix-blend-mode: multiply;"><path d="M5,219.77500000000006C392.5,219.77500000000006,392.5,413.8250000000002,780,413.8250000000002" stroke="#1f77b4" stroke-width="3.65"/><title>Canon → Canon EOS 80D: 1</title></g><g style="mix-blend-mode: multiply;"><path d="M5,223.42500000000007C392.5,223.42500000000007,392.5,422.4750000000002,780,422.4750000000002" stroke="#1f77b4" stroke-width="3.65"/><title>Canon → Canon EOS 90D: 1</title></g><g style="mix-blend-mode: multiply;"><path d="M5,154.075C392.5,154.075,392.5,199.72500000000022,780,199.72500000000022" stroke="#1f77b4" stroke-width="10.95"/><title>Canon → Canon EOS R3: 3</title></g><g style="mix-blend-mode: multiply;"><path d="M5,113.925C392.5,113.925,392.5,61.5750000000002,780,61.5750000000002" stroke="#1f77b4" stroke-width="32.85"/><title>Canon → Canon EOS R5: 9</title></g><g style="mix-blend-mode: multiply;"><path d="M5,139.475C392.5,139.475,392.5,180.12500000000023,780,180.12500000000023" stroke="#1f77b4" stroke-width="18.25"/><title>Canon → Canon EOS R5 II: 5</title></g><g style="mix-blend-mode: multiply;"><path d="M5,227.07500000000007C392.5,227.07500000000007,392.5,431.12500000000017,780,431.12500000000017" stroke="#1f77b4" stroke-width="3.65"/><title>Canon → Canon EOS R50: 1</title></g><g style="mix-blend-mode: multiply;"><path d="M5,185.10000000000002C392.5,185.10000000000002,392.5,282.65000000000026,780,282.65000000000026" stroke="#1f77b4" stroke-width="7.3"/><title>Canon → Canon EOS R6: 2</title></g><g style="mix-blend-mode: multiply;"><path d="M5,192.40000000000003C392.5,192.40000000000003,392.5,294.9500000000003,780,294.9500000000003" stroke="#1f77b4" stroke-width="7.3"/><title>Canon → Canon EOS R6 II: 2</title></g><g style="mix-blend-mode: multiply;"><path d="M5,230.72500000000008C392.5,230.72500000000008,392.5,439.77500000000015,780,439.77500000000015" stroke="#1f77b4" stroke-width="3.65"/><title>Canon → Canon EOS R7: 1</title></g><g style="mix-blend-mode: multiply;"><path d="M5,199.70000000000005C392.5,199.70000000000005,392.5,307.2500000000003,780,307.2500000000003" stroke="#1f77b4" stroke-width="7.3"/><title>Canon → Canon EOS R8: 2</title></g><g style="mix-blend-mode: multiply;"><path d="M5,234.37500000000009C392.5,234.37500000000009,392.5,448.4250000000001,780,448.4250000000001" stroke="#1f77b4" stroke-width="3.65"/><title>Canon → Canon EOS Rebel T6: 1</title></g><g style="mix-blend-mode: multiply;"><path d="M5,472.025C392.5,472.025,392.5,457.0750000000001,780,457.0750000000001" stroke="#ff7f0e" stroke-width="3.65"/><title>Leica → Leica SL2: 1</title></g><g style="mix-blend-mode: multiply;"><path d="M5,441.47499999999997C392.5,441.47499999999997,392.5,465.7250000000001,780,465.7250000000001" stroke="#2ca02c" stroke-width="3.65"/><title>Nikon → Nikon D3500: 1</title></g><g style="mix-blend-mode: multiply;"><path d="M5,428.69999999999993C392.5,428.69999999999993,392.5,319.5500000000003,780,319.5500000000003" stroke="#2ca02c" stroke-width="7.3"/><title>Nikon → Nikon D500: 2</title></g><g style="mix-blend-mode: multiply;"><path d="M5,445.12499999999994C392.5,445.12499999999994,392.5,474.37500000000006,780,474.37500000000006" stroke="#2ca02c" stroke-width="3.65"/><title>Nikon → Nikon D5200: 1</title></g><g style="mix-blend-mode: multiply;"><path d="M5,448.7749999999999C392.5,448.7749999999999,392.5,483.02500000000003,780,483.02500000000003" stroke="#2ca02c" stroke-width="3.65"/><title>Nikon → Nikon D5300: 1</title></g><g style="mix-blend-mode: multiply;"><path d="M5,452.4249999999999C392.5,452.4249999999999,392.5,491.675,780,491.675" stroke="#2ca02c" stroke-width="3.65"/><title>Nikon → Nikon D610: 1</title></g><g style="mix-blend-mode: multiply;"><path d="M5,456.0749999999999C392.5,456.0749999999999,392.5,500.325,780,500.325" stroke="#2ca02c" stroke-width="3.65"/><title>Nikon → Nikon D780: 1</title></g><g style="mix-blend-mode: multiply;"><path d="M5,435.99999999999994C392.5,435.99999999999994,392.5,331.8500000000003,780,331.8500000000003" stroke="#2ca02c" stroke-width="7.3"/><title>Nikon → Nikon D850: 2</title></g><g style="mix-blend-mode: multiply;"><path d="M5,459.72499999999985C392.5,459.72499999999985,392.5,508.97499999999997,780,508.97499999999997" stroke="#2ca02c" stroke-width="3.65"/><title>Nikon → Nikon Z50: 1</title></g><g style="mix-blend-mode: multiply;"><path d="M5,412.2749999999999C392.5,412.2749999999999,392.5,95.77500000000022,780,95.77500000000022" stroke="#2ca02c" stroke-width="25.55"/><title>Nikon → Nikon Z8: 7</title></g><g style="mix-blend-mode: multiply;"><path d="M5,379.42499999999995C392.5,379.42499999999995,392.5,20.075000000000227,780,20.075000000000227" stroke="#2ca02c" stroke-width="40.15"/><title>Nikon → Nikon Z9: 11</title></g><g style="mix-blend-mode: multiply;"><path d="M5,463.37499999999983C392.5,463.37499999999983,392.5,517.625,780,517.625" stroke="#2ca02c" stroke-width="3.65"/><title>Nikon → Nikon Zf: 1</title></g><g style="mix-blend-mode: multiply;"><path d="M5,480.675C392.5,480.675,392.5,526.275,780,526.275" stroke="#d62728" stroke-width="3.65"/><title>Olympus → Olympus OM-D E-M1: 1</title></g><g style="mix-blend-mode: multiply;"><path d="M5,253.975C392.5,253.975,392.5,126.32500000000023,780,126.32500000000023" stroke="#9467bd" stroke-width="25.55"/><title>Sony → Sony Alpha 1: 7</title></g><g style="mix-blend-mode: multiply;"><path d="M5,334.275C392.5,334.275,392.5,534.925,780,534.925" stroke="#9467bd" stroke-width="3.65"/><title>Sony → Sony Alpha 6400: 1</title></g><g style="mix-blend-mode: multiply;"><path d="M5,337.92499999999995C392.5,337.92499999999995,392.5,543.5749999999999,780,543.5749999999999" stroke="#9467bd" stroke-width="3.65"/><title>Sony → Sony Alpha 6600: 1</title></g><g style="mix-blend-mode: multiply;"><path d="M5,341.57499999999993C392.5,341.57499999999993,392.5,552.2249999999999,780,552.2249999999999" stroke="#9467bd" stroke-width="3.65"/><title>Sony → Sony Alpha 6700: 1</title></g><g style="mix-blend-mode: multiply;"><path d="M5,294.125C392.5,294.125,392.5,215.6750000000002,780,215.6750000000002" stroke="#9467bd" stroke-width="10.95"/><title>Sony → Sony Alpha 7 III: 3</title></g><g style="mix-blend-mode: multiply;"><path d="M5,277.7C392.5,277.7,392.5,155.05000000000024,780,155.05000000000024" stroke="#9467bd" stroke-width="21.9"/><title>Sony → Sony Alpha 7 IV: 6</title></g><g style="mix-blend-mode: multiply;"><path d="M5,314.19999999999993C392.5,314.19999999999993,392.5,344.1500000000003,780,344.1500000000003" stroke="#9467bd" stroke-width="7.3"/><title>Sony → Sony Alpha 7C: 2</title></g><g style="mix-blend-mode: multiply;"><path d="M5,321.49999999999994C392.5,321.49999999999994,392.5,356.45000000000033,780,356.45000000000033" stroke="#9467bd" stroke-width="7.3"/><title>Sony → Sony Alpha 7C II: 2</title></g><g style="mix-blend-mode: multiply;"><path d="M5,328.79999999999995C392.5,328.79999999999995,392.5,368.7500000000003,780,368.7500000000003" stroke="#9467bd" stroke-width="7.3"/><title>Sony → Sony Alpha 7R IV: 2</title></g><g style="mix-blend-mode: multiply;"><path d="M5,305.075C392.5,305.075,392.5,231.6250000000002,780,231.6250000000002" stroke="#9467bd" stroke-width="10.95"/><title>Sony → Sony Alpha 7R V: 3</title></g><g style="mix-blend-mode: multiply;"><path d="M5,345.2249999999999C392.5,345.2249999999999,392.5,560.8749999999999,780,560.8749999999999" stroke="#9467bd" stroke-width="3.65"/><title>Sony → Sony Alpha 7S III: 1</title></g><g style="mix-blend-mode: multiply;"><path d="M5,348.8749999999999C392.5,348.8749999999999,392.5,569.5249999999999,780,569.5249999999999" stroke="#9467bd" stroke-width="3.65"/><title>Sony → Sony Alpha 9: 1</title></g><g style="mix-blend-mode: multiply;"><path d="M5,352.52499999999986C392.5,352.52499999999986,392.5,578.1749999999998,780,578.1749999999998" stroke="#9467bd" stroke-width="3.65"/><title>Sony → Sony RX10 III: 1</title></g></g><g><text x="9" y="166.85" text-anchor="start"><tspan alignment-baseline="middle" x="9" style="font-family: Arial, sans-serif; font-size: 10px; fill: black; font-weight: bold;">Canon</tspan></text><text x="9" y="297.775" text-anchor="start"><tspan alignment-baseline="middle" x="9" style="font-family: Arial, sans-serif; font-size: 10px; fill: black; font-weight: bold;">Sony</tspan></text><text x="9" y="412.275" text-anchor="start"><tspan alignment-baseline="middle" x="9" style="font-family: Arial, sans-serif; font-size: 10px; fill: black; font-weight: bold;">Nikon</tspan></text><text x="776" y="20.075000000000216" text-anchor="end"><tspan alignment-baseline="middle" x="776" style="font-family: Arial, sans-serif; font-size: 10px; fill: black; font-weight: bold;">Nikon Z9</tspan></text><text x="776" y="61.57500000000021" text-anchor="end"><tspan alignment-baseline="middle" x="776" style="font-family: Arial, sans-serif; font-size: 10px; fill: black; font-weight: bold;">Canon EOS R5</tspan></text><text x="776" y="95.77500000000022" text-anchor="end"><tspan alignment-baseline="middle" x="776" style="font-family: Arial, sans-serif; font-size: 10px; fill: black; font-weight: bold;">Nikon Z8</tspan></text><text x="776" y="126.32500000000024" text-anchor="end"><tspan alignment-baseline="middle" x="776" style="font-family: Arial, sans-serif; font-size: 10px; fill: black; font-weight: bold;">Sony Alpha 1</tspan></text><text x="776" y="155.05000000000024" text-anchor="end"><tspan alignment-baseline="middle" x="776" style="font-family: Arial, sans-serif; font-size: 10px; fill: black; font-weight: bold;">Sony Alpha 7 IV</tspan></text><text x="776" y="180.12500000000023" text-anchor="end"><tspan alignment-baseline="middle" x="776" style="font-family: Arial, sans-serif; font-size: 10px; fill: black; font-weight: bold;">Canon EOS R5 II</tspan></text><text x="776" y="199.72500000000022" text-anchor="end"><tspan alignment-baseline="middle" x="776" style="font-family: Arial, sans-serif; font-size: 10px; fill: black; font-weight: bold;">Canon EOS R3</tspan></text><text x="776" y="215.6750000000002" text-anchor="end"><tspan alignment-baseline="middle" x="776" style="font-family: Arial, sans-serif; font-size: 10px; fill: black; font-weight: bold;">Sony Alpha 7 III</tspan></text><text x="776" y="231.62500000000023" text-anchor="end"><tspan alignment-baseline="middle" x="776" style="font-family: Arial, sans-serif; font-size: 10px; fill: black; font-weight: bold;">Sony Alpha 7R V</tspan></text><text x="776" y="245.75000000000026" text-anchor="end"><tspan alignment-baseline="middle" x="776" style="font-family: Arial, sans-serif; font-size: 10px; fill: black; font-weight: bold;">Canon EOS 1D X III</tspan></text><text x="776" y="258.0500000000003" text-anchor="end"><tspan alignment-baseline="middle" x="776" style="font-family: Arial, sans-serif; font-size: 10px; fill: black; font-weight: bold;">Canon EOS 5D IV</tspan></text><text x="776" y="270.35000000000025" text-anchor="end"><tspan alignment-baseline="middle" x="776" style="font-family: Arial, sans-serif; font-size: 10px; fill: black; font-weight: bold;">Canon EOS 6D</tspan></text><text x="776" y="282.6500000000003" text-anchor="end"><tspan alignment-baseline="middle" x="776" style="font-family: Arial, sans-serif; font-size: 10px; fill: black; font-weight: bold;">Canon EOS R6</tspan></text><text x="776" y="294.9500000000003" text-anchor="end"><tspan alignment-baseline="middle" x="776" style="font-family: Arial, sans-serif; font-size: 10px; fill: black; font-weight: bold;">Canon EOS R6 II</tspan></text><text x="776" y="307.25000000000034" text-anchor="end"><tspan alignment-baseline="middle" x="776" style="font-family: Arial, sans-serif; font-size: 10px; fill: black; font-weight: bold;">Canon EOS R8</tspan></text><text x="776" y="319.5500000000003" text-anchor="end"><tspan alignment-baseline="middle" x="776" style="font-family: Arial, sans-serif; font-size: 10px; fill: black; font-weight: bold;">Nikon D500</tspan></text><text x="776" y="331.85000000000036" text-anchor="end"><tspan alignment-baseline="middle" x="776" style="font-family: Arial, sans-serif; font-size: 10px; fill: black; font-weight: bold;">Nikon D850</tspan></text><text x="776" y="344.1500000000003" text-anchor="end"><tspan alignment-baseline="middle" x="776" style="font-family: Arial, sans-serif; font-size: 10px; fill: black; font-weight: bold;">Sony Alpha 7C</tspan></text><text x="776" y="356.45000000000033" text-anchor="end"><tspan alignment-baseline="middle" x="776" style="font-family: Arial, sans-serif; font-size: 10px; fill: black; font-weight: bold;">Sony Alpha 7C II</tspan></text><text x="776" y="368.7500000000003" text-anchor="end"><tspan alignment-baseline="middle" x="776" style="font-family: Arial, sans-serif; font-size: 10px; fill: black; font-weight: bold;">Sony Alpha 7R IV</tspan></text><text x="776" y="379.22500000000025" text-anchor="end"><tspan alignment-baseline="middle" x="776" style="font-family: Arial, sans-serif; font-size: 10px; fill: black; font-weight: bold;">Canon EOS 5D</tspan></text><text x="776" y="387.8750000000002" text-anchor="end"><tspan alignment-baseline="middle" x="776" style="font-family: Arial, sans-serif; font-size: 10px; fill: black; font-weight: bold;">Canon EOS 70D</tspan></text><text x="776" y="396.5250000000002" text-anchor="end"><tspan alignment-baseline="middle" x="776" style="font-family: Arial, sans-serif; font-size: 10px; fill: black; font-weight: bold;">Canon EOS 77D</tspan></text><text x="776" y="405.1750000000002" text-anchor="end"><tspan alignment-baseline="middle" x="776" style="font-family: Arial, sans-serif; font-size: 10px; fill: black; font-weight: bold;">Canon EOS 7D II</tspan></text><text x="776" y="413.8250000000002" text-anchor="end"><tspan alignment-baseline="middle" x="776" style="font-family: Arial, sans-serif; font-size: 10px; fill: black; font-weight: bold;">Canon EOS 80D</tspan></text><text x="776" y="422.4750000000002" text-anchor="end"><tspan alignment-baseline="middle" x="776" style="font-family: Arial, sans-serif; font-size: 10px; fill: black; font-weight: bold;">Canon EOS 90D</tspan></text><text x="776" y="431.12500000000017" text-anchor="end"><tspan alignment-baseline="middle" x="776" style="font-family: Arial, sans-serif; font-size: 10px; fill: black; font-weight: bold;">Canon EOS R50</tspan></text><text x="776" y="439.77500000000015" text-anchor="end"><tspan alignment-baseline="middle" x="776" style="font-family: Arial, sans-serif; font-size: 10px; fill: black; font-weight: bold;">Canon EOS R7</tspan></text><text x="776" y="448.4250000000001" text-anchor="end"><tspan alignment-baseline="middle" x="776" style="font-family: Arial, sans-serif; font-size: 10px; fill: black; font-weight: bold;">Canon EOS Rebel T6</tspan></text><text x="9" y="472.025" text-anchor="start"><tspan alignment-baseline="middle" x="9" style="font-family: Arial, sans-serif; font-size: 10px; fill: black; font-weight: bold;">Leica</tspan></text><text x="776" y="457.0750000000001" text-anchor="end"><tspan alignment-baseline="middle" x="776" style="font-family: Arial, sans-serif; font-size: 10px; fill: black; font-weight: bold;">Leica SL2</tspan></text><text x="776" y="465.7250000000001" text-anchor="end"><tspan alignment-baseline="middle" x="776" style="font-family: Arial, sans-serif; font-size: 10px; fill: black; font-weight: bold;">Nikon D3500</tspan></text><text x="776" y="474.37500000000006" text-anchor="end"><tspan alignment-baseline="middle" x="776" style="font-family: Arial, sans-serif; font-size: 10px; fill: black; font-weight: bold;">Nikon D5200</tspan></text><text x="776" y="483.02500000000003" text-anchor="end"><tspan alignment-baseline="middle" x="776" style="font-family: Arial, sans-serif; font-size: 10px; fill: black; font-weight: bold;">Nikon D5300</tspan></text><text x="776" y="491.675" text-anchor="end"><tspan alignment-baseline="middle" x="776" style="font-family: Arial, sans-serif; font-size: 10px; fill: black; font-weight: bold;">Nikon D610</tspan></text><text x="776" y="500.325" text-anchor="end"><tspan alignment-baseline="middle" x="776" style="font-family: Arial, sans-serif; font-size: 10px; fill: black; font-weight: bold;">Nikon D780</tspan></text><text x="776" y="508.97499999999997" text-anchor="end"><tspan alignment-baseline="middle" x="776" style="font-family: Arial, sans-serif; font-size: 10px; fill: black; font-weight: bold;">Nikon Z50</tspan></text><text x="776" y="517.625" text-anchor="end"><tspan alignment-baseline="middle" x="776" style="font-family: Arial, sans-serif; font-size: 10px; fill: black; font-weight: bold;">Nikon Zf</tspan></text><text x="9" y="480.675" text-anchor="start"><tspan alignment-baseline="middle" x="9" style="font-family: Arial, sans-serif; font-size: 10px; fill: black; font-weight: bold;">Olympus</tspan></text><text x="776" y="526.2749999999999" text-anchor="end"><tspan alignment-baseline="middle" x="776" style="font-family: Arial, sans-serif; font-size: 10px; fill: black; font-weight: bold;">Olympus OM-D E-M1</tspan></text><text x="776" y="534.925" text-anchor="end"><tspan alignment-baseline="middle" x="776" style="font-family: Arial, sans-serif; font-size: 10px; fill: black; font-weight: bold;">Sony Alpha 6400</tspan></text><text x="776" y="543.5749999999998" text-anchor="end"><tspan alignment-baseline="middle" x="776" style="font-family: Arial, sans-serif; font-size: 10px; fill: black; font-weight: bold;">Sony Alpha 6600</tspan></text><text x="776" y="552.2249999999999" text-anchor="end"><tspan alignment-baseline="middle" x="776" style="font-family: Arial, sans-serif; font-size: 10px; fill: black; font-weight: bold;">Sony Alpha 6700</tspan></text><text x="776" y="560.8749999999998" text-anchor="end"><tspan alignment-baseline="middle" x="776" style="font-family: Arial, sans-serif; font-size: 10px; fill: black; font-weight: bold;">Sony Alpha 7S III</tspan></text><text x="776" y="569.5249999999999" text-anchor="end"><tspan alignment-baseline="middle" x="776" style="font-family: Arial, sans-serif; font-size: 10px; fill: black; font-weight: bold;">Sony Alpha 9</tspan></text><text x="776" y="578.1749999999997" text-anchor="end"><tspan alignment-baseline="middle" x="776" style="font-family: Arial, sans-serif; font-size: 10px; fill: black; font-weight: bold;">Sony RX10 III</tspan></text></g><g><text x="2.5" y="93.5" text-anchor="middle" style="font-family: Arial, sans-serif; font-size: 12px; fill: rgb(123, 123, 123); font-weight: bold;">品牌</text><text x="782.5" y="-3.9999999999997726" text-anchor="middle" style="font-family: Arial, sans-serif; font-size: 12px; fill: rgb(123, 123, 123); font-weight: bold;">机身</text></g></g></svg>