<svg xmlns="http://www.w3.org/2000/svg" width="1005" height="600"><rect width="1005" height="600" x="0" y="0" fill="#FFFFFF" id="background"/><g transform="translate(50,50)" id="visualization"><g id="axis"><g transform="translate(0,500)" fill="none" font-size="10" font-family="sans-serif" text-anchor="middle"><path class="domain" stroke="currentColor" d="M0,6V0H705V6"/><g class="tick" opacity="1" transform="translate(0,0)"><line stroke="currentColor" y2="6"/><text fill="currentColor" y="9" dy="0.71em">0</text></g><g class="tick" opacity="1" transform="translate(78,0)"><line stroke="currentColor" y2="6"/><text fill="currentColor" y="9" dy="0.71em">100</text></g><g class="tick" opacity="1" transform="translate(157,0)"><line stroke="currentColor" y2="6"/><text fill="currentColor" y="9" dy="0.71em">200</text></g><g class="tick" opacity="1" transform="translate(235,0)"><line stroke="currentColor" y2="6"/><text fill="currentColor" y="9" dy="0.71em">300</text></g><g class="tick" opacity="1" transform="translate(313,0)"><line stroke="currentColor" y2="6"/><text fill="currentColor" y="9" dy="0.71em">400</text></g><g class="tick" opacity="1" transform="translate(392,0)"><line stroke="currentColor" y2="6"/><text fill="currentColor" y="9" dy="0.71em">500</text></g><g class="tick" opacity="1" transform="translate(470,0)"><line stroke="currentColor" y2="6"/><text fill="currentColor" y="9" dy="0.71em">600</text></g><g class="tick" opacity="1" transform="translate(548,0)"><line stroke="currentColor" y2="6"/><text fill="currentColor" y="9" dy="0.71em">700</text></g><g class="tick" opacity="1" transform="translate(627,0)"><line stroke="currentColor" y2="6"/><text fill="currentColor" y="9" dy="0.71em">800</text></g><g class="tick" opacity="1" transform="translate(705,0)"><line stroke="currentColor" y2="6"/><text fill="currentColor" y="9" dy="0.71em">900</text></g></g></g><g id="viz"><g id="8" transform="translate(0,0)"><text x="2" y="8.333333333333334" text-anchor="end" dominant-baseline="middle" style="font-family: Arial, sans-serif; font-size: 10px; fill: black; font-weight: normal;">8</text><rect x="6" y="0.833333333333333" width="1" height="15.000000000000002" fill="#33700a"/><line x1="0" y1="0" x2="705" y2="0" style="stroke: rgb(204, 204, 204);"/></g><g id="14" transform="translate(0,16.666666666666668)"><text x="7" y="8.333333333333334" text-anchor="end" dominant-baseline="middle" style="font-family: Arial, sans-serif; font-size: 10px; fill: black; font-weight: normal;">14</text><rect x="11" y="0.833333333333333" width="1" height="15.000000000000002" fill="#33700a"/><line x1="0" y1="0" x2="705" y2="0" style="stroke: rgb(204, 204, 204);"/></g><g id="18-55" transform="translate(0,33.333333333333336)"><text x="10" y="8.333333333333334" text-anchor="end" dominant-baseline="middle" style="font-family: Arial, sans-serif; font-size: 10px; fill: black; font-weight: normal;">18-55</text><rect x="14" y="0.833333333333333" width="29" height="15.000000000000002" fill="#33700a"/><line x1="0" y1="0" x2="705" y2="0" style="stroke: rgb(204, 204, 204);"/></g><g id="18-135" transform="translate(0,50)"><text x="10" y="8.333333333333334" text-anchor="end" dominant-baseline="middle" style="font-family: Arial, sans-serif; font-size: 10px; fill: black; font-weight: normal;">18-135</text><rect x="14" y="0.833333333333333" width="92" height="15.000000000000002" fill="#33700a"/><line x1="0" y1="0" x2="705" y2="0" style="stroke: rgb(204, 204, 204);"/></g><g id="20" transform="translate(0,66.66666666666667)"><text x="12" y="8.333333333333334" text-anchor="end" dominant-baseline="middle" style="font-family: Arial, sans-serif; font-size: 10px; fill: black; font-weight: normal;">20</text><rect x="16" y="0.833333333333333" width="1" height="15.000000000000002" fill="#33700a"/><line x1="0" y1="0" x2="705" y2="0" style="stroke: rgb(204, 204, 204);"/></g><g id="24-70" transform="translate(0,83.33333333333334)"><text x="15" y="8.333333333333334" text-anchor="end" dominant-baseline="middle" style="font-family: Arial, sans-serif; font-size: 10px; fill: black; font-weight: normal;">24-70</text><rect x="19" y="0.833333333333333" width="36" height="15.000000000000002" fill="#33700a"/><line x1="0" y1="0" x2="705" y2="0" style="stroke: rgb(204, 204, 204);"/></g><g id="40-150" transform="translate(0,100)"><text x="27" y="8.333333333333334" text-anchor="end" dominant-baseline="middle" style="font-family: Arial, sans-serif; font-size: 10px; fill: black; font-weight: normal;">40-150</text><rect x="31" y="0.833333333333333" width="87" height="15.000000000000002" fill="#33700a"/><line x1="0" y1="0" x2="705" y2="0" style="stroke: rgb(204, 204, 204);"/></g><g id="50" transform="translate(0,116.66666666666667)"><text x="35" y="8.333333333333334" text-anchor="end" dominant-baseline="middle" style="font-family: Arial, sans-serif; font-size: 10px; fill: black; font-weight: normal;">50</text><rect x="39" y="0.833333333333333" width="1" height="15.000000000000002" fill="#33700a"/><line x1="0" y1="0" x2="705" y2="0" style="stroke: rgb(204, 204, 204);"/></g><g id="55-250" transform="translate(0,133.33333333333334)"><text x="39" y="8.333333333333334" text-anchor="end" dominant-baseline="middle" style="font-family: Arial, sans-serif; font-size: 10px; fill: black; font-weight: normal;">55-250</text><rect x="43" y="0.833333333333333" width="153" height="15.000000000000002" fill="#33700a"/><line x1="0" y1="0" x2="705" y2="0" style="stroke: rgb(204, 204, 204);"/></g><g id="60-600" transform="translate(0,150)"><text x="43" y="8.333333333333334" text-anchor="end" dominant-baseline="middle" style="font-family: Arial, sans-serif; font-size: 10px; fill: black; font-weight: normal;">60-600</text><rect x="47" y="0.833333333333333" width="423" height="15.000000000000002" fill="#33700a"/><line x1="0" y1="0" x2="705" y2="0" style="stroke: rgb(204, 204, 204);"/></g><g id="70-200" transform="translate(0,166.66666666666669)"><text x="51" y="8.333333333333334" text-anchor="end" dominant-baseline="middle" style="font-family: Arial, sans-serif; font-size: 10px; fill: black; font-weight: normal;">70-200</text><rect x="55" y="0.833333333333333" width="102" height="15.000000000000002" fill="#900c00"/><line x1="0" y1="0" x2="705" y2="0" style="stroke: rgb(204, 204, 204);"/></g><g id="70-300" transform="translate(0,183.33333333333334)"><text x="51" y="8.333333333333334" text-anchor="end" dominant-baseline="middle" style="font-family: Arial, sans-serif; font-size: 10px; fill: black; font-weight: normal;">70-300</text><rect x="55" y="0.833333333333333" width="180" height="15.000000000000002" fill="#33700a"/><line x1="0" y1="0" x2="705" y2="0" style="stroke: rgb(204, 204, 204);"/></g><g id="85" transform="translate(0,200)"><text x="63" y="8.333333333333334" text-anchor="end" dominant-baseline="middle" style="font-family: Arial, sans-serif; font-size: 10px; fill: black; font-weight: normal;">85</text><rect x="67" y="0.833333333333333" width="1" height="15.000000000000002" fill="#33700a"/><line x1="0" y1="0" x2="705" y2="0" style="stroke: rgb(204, 204, 204);"/></g><g id="90-280" transform="translate(0,216.66666666666669)"><text x="67" y="8.333333333333334" text-anchor="end" dominant-baseline="middle" style="font-family: Arial, sans-serif; font-size: 10px; fill: black; font-weight: normal;">90-280</text><rect x="71" y="0.833333333333333" width="148" height="15.000000000000002" fill="#33700a"/><line x1="0" y1="0" x2="705" y2="0" style="stroke: rgb(204, 204, 204);"/></g><g id="100-500" transform="translate(0,233.33333333333334)"><text x="74" y="8.333333333333334" text-anchor="end" dominant-baseline="middle" style="font-family: Arial, sans-serif; font-size: 10px; fill: black; font-weight: normal;">100-500</text><rect x="78" y="0.833333333333333" width="314" height="15.000000000000002" fill="#23171b"/><line x1="0" y1="0" x2="705" y2="0" style="stroke: rgb(204, 204, 204);"/></g><g id="100-400" transform="translate(0,250.00000000000003)"><text x="74" y="8.333333333333334" text-anchor="end" dominant-baseline="middle" style="font-family: Arial, sans-serif; font-size: 10px; fill: black; font-weight: normal;">100-400</text><rect x="78" y="0.833333333333333" width="235" height="15.000000000000002" fill="#900c00"/><line x1="0" y1="0" x2="705" y2="0" style="stroke: rgb(204, 204, 204);"/></g><g id="135" transform="translate(0,266.6666666666667)"><text x="102" y="8.333333333333334" text-anchor="end" dominant-baseline="middle" style="font-family: Arial, sans-serif; font-size: 10px; fill: black; font-weight: normal;">135</text><rect x="106" y="0.833333333333333" width="1" height="15.000000000000002" fill="#33700a"/><line x1="0" y1="0" x2="705" y2="0" style="stroke: rgb(204, 204, 204);"/></g><g id="140-420" transform="translate(0,283.33333333333337)"><text x="106" y="8.333333333333334" text-anchor="end" dominant-baseline="middle" style="font-family: Arial, sans-serif; font-size: 10px; fill: black; font-weight: normal;">140-420</text><rect x="110" y="0.833333333333333" width="219" height="15.000000000000002" fill="#33700a"/><line x1="0" y1="0" x2="705" y2="0" style="stroke: rgb(204, 204, 204);"/></g><g id="140-560" transform="translate(0,300)"><text x="106" y="8.333333333333334" text-anchor="end" dominant-baseline="middle" style="font-family: Arial, sans-serif; font-size: 10px; fill: black; font-weight: normal;">140-560</text><rect x="110" y="0.833333333333333" width="329" height="15.000000000000002" fill="#33700a"/><line x1="0" y1="0" x2="705" y2="0" style="stroke: rgb(204, 204, 204);"/></g><g id="150-600" transform="translate(0,316.6666666666667)"><text x="114" y="8.333333333333334" text-anchor="end" dominant-baseline="middle" style="font-family: Arial, sans-serif; font-size: 10px; fill: black; font-weight: normal;">150-600</text><rect x="118" y="0.833333333333333" width="352" height="15.000000000000002" fill="#23171b"/><line x1="0" y1="0" x2="705" y2="0" style="stroke: rgb(204, 204, 204);"/></g><g id="180-600" transform="translate(0,333.33333333333337)"><text x="137" y="8.333333333333334" text-anchor="end" dominant-baseline="middle" style="font-family: Arial, sans-serif; font-size: 10px; fill: black; font-weight: normal;">180-600</text><rect x="141" y="0.833333333333333" width="329" height="15.000000000000002" fill="#900c00"/><line x1="0" y1="0" x2="705" y2="0" style="stroke: rgb(204, 204, 204);"/></g><g id="200-600" transform="translate(0,350)"><text x="153" y="8.333333333333334" text-anchor="end" dominant-baseline="middle" style="font-family: Arial, sans-serif; font-size: 10px; fill: black; font-weight: normal;">200-600</text><rect x="157" y="0.833333333333333" width="313" height="15.000000000000002" fill="#23171b"/><line x1="0" y1="0" x2="705" y2="0" style="stroke: rgb(204, 204, 204);"/></g><g id="200-500" transform="translate(0,366.6666666666667)"><text x="153" y="8.333333333333334" text-anchor="end" dominant-baseline="middle" style="font-family: Arial, sans-serif; font-size: 10px; fill: black; font-weight: normal;">200-500</text><rect x="157" y="0.833333333333333" width="235" height="15.000000000000002" fill="#33700a"/><line x1="0" y1="0" x2="705" y2="0" style="stroke: rgb(204, 204, 204);"/></g><g id="400" transform="translate(0,383.33333333333337)"><text x="309" y="8.333333333333334" text-anchor="end" dominant-baseline="middle" style="font-family: Arial, sans-serif; font-size: 10px; fill: black; font-weight: normal;">400</text><rect x="313" y="0.833333333333333" width="1" height="15.000000000000002" fill="#900c00"/><line x1="0" y1="0" x2="705" y2="0" style="stroke: rgb(204, 204, 204);"/></g><g id="420" transform="translate(0,400)"><text x="325" y="8.333333333333334" text-anchor="end" dominant-baseline="middle" style="font-family: Arial, sans-serif; font-size: 10px; fill: black; font-weight: normal;">420</text><rect x="329" y="0.833333333333333" width="1" height="15.000000000000002" fill="#33700a"/><line x1="0" y1="0" x2="705" y2="0" style="stroke: rgb(204, 204, 204);"/></g><g id="500" transform="translate(0,416.6666666666667)"><text x="388" y="8.333333333333334" text-anchor="end" dominant-baseline="middle" style="font-family: Arial, sans-serif; font-size: 10px; fill: black; font-weight: normal;">500</text><rect x="392" y="0.833333333333333" width="1" height="15.000000000000002" fill="#900c00"/><line x1="0" y1="0" x2="705" y2="0" style="stroke: rgb(204, 204, 204);"/></g><g id="600" transform="translate(0,433.33333333333337)"><text x="466" y="8.333333333333334" text-anchor="end" dominant-baseline="middle" style="font-family: Arial, sans-serif; font-size: 10px; fill: black; font-weight: normal;">600</text><rect x="470" y="0.833333333333333" width="1" height="15.000000000000002" fill="#900c00"/><line x1="0" y1="0" x2="705" y2="0" style="stroke: rgb(204, 204, 204);"/></g><g id="700" transform="translate(0,450.00000000000006)"><text x="544" y="8.333333333333334" text-anchor="end" dominant-baseline="middle" style="font-family: Arial, sans-serif; font-size: 10px; fill: black; font-weight: normal;">700</text><rect x="548" y="0.833333333333333" width="1" height="15.000000000000002" fill="#33700a"/><line x1="0" y1="0" x2="705" y2="0" style="stroke: rgb(204, 204, 204);"/></g><g id="800" transform="translate(0,466.6666666666667)"><text x="623" y="8.333333333333334" text-anchor="end" dominant-baseline="middle" style="font-family: Arial, sans-serif; font-size: 10px; fill: black; font-weight: normal;">800</text><rect x="627" y="0.833333333333333" width="1" height="15.000000000000002" fill="#33700a"/><line x1="0" y1="0" x2="705" y2="0" style="stroke: rgb(204, 204, 204);"/></g><g id="840" transform="translate(0,483.33333333333337)"><text x="654" y="8.333333333333334" text-anchor="end" dominant-baseline="middle" style="font-family: Arial, sans-serif; font-size: 10px; fill: black; font-weight: normal;">840</text><rect x="658" y="0.833333333333333" width="1" height="15.000000000000002" fill="#33700a"/><line x1="0" y1="0" x2="705" y2="0" style="stroke: rgb(204, 204, 204);"/></g></g></g><g id="legend" transform="translate(805,50)"><g transform="translate(5,0)"><g class="legendColor" transform="translate(0,0)"><g class="legendCells" transform="translate(0,16)"><g class="cell" transform="translate(0, 0)"><rect class="swatch" height="15" width="15" style="fill: rgb(35, 23, 27);"/><text class="label" transform="translate( 20, 12.5)" font-family="&quot;Arial&quot;, sans-serif" font-size="10px"><tspan x="0" dy="0em">High (10+)</tspan></text></g><g class="cell" transform="translate(0, 21)"><rect class="swatch" height="15" width="15" style="fill: rgb(51, 112, 10);"/><text class="label" transform="translate( 20, 12.5)" font-family="&quot;Arial&quot;, sans-serif" font-size="10px"><tspan x="0" dy="0em">Low (1-4)</tspan></text></g><g class="cell" transform="translate(0, 42)"><rect class="swatch" height="15" width="15" style="fill: rgb(144, 12, 0);"/><text class="label" transform="translate( 20, 12.5)" font-family="&quot;Arial&quot;, sans-serif" font-size="10px"><tspan x="0" dy="0em">Medium (5-9)</tspan></text></g></g><text class="legendTitle" font-family="&quot;Arial&quot;, sans-serif" font-size="12px" font-weight="bold"><tspan x="0" dy="0em">数量</tspan></text></g></g></g></svg>