<svg xmlns="http://www.w3.org/2000/svg" width="683.15" height="583.88"><defs><marker orient="auto" refY="0" refX="0" id="a" style="overflow:visible"><path d="m0 0 5-5-17.5 5L5 5 0 0z" style="fill-rule:evenodd;stroke:#000;stroke-width:1pt;marker-start:none" transform="matrix(-.4 0 0 -.4 -4 0)"/></marker></defs><g transform="translate(-55.496 -269.533)"><text xml:space="preserve" style="font-size:28.87808037px;fill:none;stroke:#000;stroke-width:2.16585588;stroke-linecap:round;stroke-linejoin:bevel;stroke-miterlimit:4;stroke-opacity:1;stroke-dasharray:2.165856,4.331712;stroke-dashoffset:0;font-family:M" x="160.825" y="513.502"/><rect style="fill:#fff;fill-opacity:1;fill-rule:evenodd;stroke:#000;stroke-width:2.57546449;stroke-linecap:round;stroke-linejoin:round;stroke-miterlimit:4;stroke-opacity:1;stroke-dasharray:none;stroke-dashoffset:0" width="70.112" height="46.928" x="-239.583" y="693.227" rx="0" ry="0" transform="matrix(.95262 -.30418 .80676 .59088 0 0)"/><path style="fill:#fff;fill-opacity:1;fill-rule:evenodd;stroke:#000;stroke-width:5;stroke-linecap:round;stroke-linejoin:round;stroke-miterlimit:4;stroke-opacity:1;stroke-dasharray:none;stroke-dashoffset:0" d="M892.404 588.231c8-13.714 25.88-18.505 39.938-10.701 14.057 7.805 18.968 25.249 10.968 38.963-8 13.715-25.88 18.506-39.937 10.701-13.938-7.738-18.904-24.973-11.142-38.663" transform="matrix(.4631 -.15351 0 .4631 -31.792 318.907)"/><rect style="fill:#fff;fill-opacity:1;fill-rule:evenodd;stroke:#000;stroke-width:2.55548429;stroke-linecap:round;stroke-linejoin:round;stroke-miterlimit:4;stroke-opacity:1;stroke-dasharray:none;stroke-dashoffset:0" width="273.995" height="140.26" x="-533.407" y="928.301" rx="0" ry="0" transform="matrix(.95006 -.31208 .79866 .60178 0 0)"/><path d="m339.904 321.736 54.019-16.993c10.582-2.835 17.23.663 20.969 3.285 6.158 4.317 7.613 5.387 29.834 21.701L356.12 469.64c-42.381-29.767-41.491-31.432-41.959-42.926l-.188-68.897c.758-13.244 9.75-30.622 25.932-36.08z" style="fill:#fff;fill-opacity:1;fill-rule:evenodd;stroke:#000;stroke-width:2.31545901;stroke-linecap:round;stroke-linejoin:round;stroke-miterlimit:4;stroke-opacity:1;stroke-dasharray:none;stroke-dashoffset:0"/><rect style="fill:#fff;fill-opacity:1;fill-rule:evenodd;stroke:#000;stroke-width:2.57546496;stroke-linecap:round;stroke-linejoin:round;stroke-miterlimit:4;stroke-opacity:1;stroke-dasharray:none;stroke-dashoffset:0" width="124.177" height="38.198" x="-50.666" y="560.442" rx="0" ry="0" transform="matrix(.94854 -.31667 .81445 .58023 0 0)"/><rect style="fill:#fff;fill-opacity:1;fill-rule:evenodd;stroke:#000;stroke-width:2.37364411;stroke-linecap:round;stroke-linejoin:round;stroke-miterlimit:4;stroke-opacity:1;stroke-dasharray:none;stroke-dashoffset:0" width="31.656" height="314.82" x="536.39" y="-869.357" rx="0" ry="0" transform="matrix(.95195 -.30625 .00123 -1 0 0)"/><rect style="fill:#fff;fill-opacity:1;fill-rule:evenodd;stroke:#000;stroke-width:2.57546449;stroke-linecap:round;stroke-linejoin:round;stroke-miterlimit:4;stroke-opacity:1;stroke-dasharray:none;stroke-dashoffset:0" width="30.385" height="21.912" x="64.101" y="535.13" rx="0" ry="0" transform="matrix(.95262 -.30418 .80676 .59088 0 0)"/><rect style="fill:#fff;fill-opacity:1;fill-rule:evenodd;stroke:#000;stroke-width:2.58647537;stroke-linecap:round;stroke-linejoin:round;stroke-miterlimit:4;stroke-opacity:1;stroke-dasharray:none;stroke-dashoffset:0" width="21.583" height="307.069" x="-635.491" y="-324.544" rx="0" ry="0" transform="matrix(-.80184 -.59754 -.0007 -1 0 0)"/><rect style="fill:#fff;fill-opacity:1;fill-rule:evenodd;stroke:#000;stroke-width:2.57546449;stroke-linecap:round;stroke-linejoin:round;stroke-miterlimit:4;stroke-opacity:1;stroke-dasharray:none;stroke-dashoffset:0" width="48.303" height="29.455" x="-229.892" y="703.09" rx="0" ry="0" transform="matrix(.95262 -.30418 .80676 .59088 0 0)"/><rect style="fill:#fff;fill-opacity:1;fill-rule:evenodd;stroke:#000;stroke-width:2.57546449;stroke-linecap:round;stroke-linejoin:round;stroke-miterlimit:4;stroke-opacity:1;stroke-dasharray:none;stroke-dashoffset:0" width="48.303" height="29.455" x="-224.408" y="696.453" rx="0" ry="0" transform="matrix(.95262 -.30418 .80676 .59088 0 0)"/><path style="fill:#fff;fill-opacity:1;fill-rule:evenodd;stroke:#000;stroke-width:2.37660551;stroke-linecap:round;stroke-linejoin:round;stroke-miterlimit:4;stroke-opacity:1;stroke-dasharray:none;stroke-dashoffset:0" transform="skewY(-18.34) scale(.9492 1)" d="M477.032 509.279h109.944v60.037H477.032z"/><rect style="fill:#fff;fill-opacity:1;fill-rule:evenodd;stroke:#000;stroke-width:2.31567883;stroke-linecap:round;stroke-linejoin:round;stroke-miterlimit:4;stroke-opacity:1;stroke-dasharray:none;stroke-dashoffset:0" width="5.01" height="69.893" x="426.613" y="466.326" transform="skewY(-1.114) scale(.99981 1)" ry="5.864" rx="5.193"/><path style="fill:#fff;fill-opacity:1;fill-rule:evenodd;stroke:#000;stroke-width:5;stroke-linecap:round;stroke-linejoin:round;stroke-miterlimit:4;stroke-opacity:1;stroke-dasharray:none;stroke-dashoffset:0" d="M261.506 718.741c1.652 11.954-13.236 22.445-33.252 23.43-20.016.987-37.58-7.904-39.232-19.858a13.01 13.01 0 0 1-.001-3.567" transform="matrix(.4631 0 0 .4631 279.993 180.701)"/><path style="fill:#fff;fill-opacity:1;fill-rule:evenodd;stroke:#000;stroke-width:5;stroke-linecap:round;stroke-linejoin:round;stroke-miterlimit:4;stroke-opacity:1;stroke-dasharray:none;stroke-dashoffset:0" d="M261.506 718.741c1.652 11.954-13.236 22.445-33.252 23.43-20.016.987-37.58-7.904-39.232-19.858a13.01 13.01 0 0 1-.001-3.567" transform="matrix(.4631 0 0 .4631 279.983 176.458)"/><path style="fill:#fff;fill-opacity:1;fill-rule:evenodd;stroke:#000;stroke-width:2.37660551;stroke-linecap:round;stroke-linejoin:round;stroke-miterlimit:4;stroke-opacity:1;stroke-dasharray:none;stroke-dashoffset:0" transform="skewY(-18.34) scale(.9492 1)" d="M387.681 632.129h69.942v9.497h-69.942z"/><path style="fill:#fff;fill-opacity:1;fill-rule:evenodd;stroke:#000;stroke-width:5;stroke-linecap:round;stroke-linejoin:round;stroke-miterlimit:4;stroke-opacity:1;stroke-dasharray:none;stroke-dashoffset:0" d="M892.404 588.231c8-13.714 25.88-18.505 39.938-10.701 14.057 7.805 18.968 25.249 10.968 38.963-8 13.715-25.88 18.506-39.937 10.701-13.938-7.738-18.904-24.973-11.142-38.663" transform="matrix(.4631 -.15351 0 .4631 11.857 355.32)"/><rect style="fill:#fff;fill-opacity:1;fill-rule:evenodd;stroke:#000;stroke-width:2.58647537;stroke-linecap:round;stroke-linejoin:round;stroke-miterlimit:4;stroke-opacity:1;stroke-dasharray:none;stroke-dashoffset:0" width="21.583" height="23.652" x="-635.72" y="46.765" rx="0" ry="0" transform="matrix(-.80184 -.59754 -.0007 -1 0 0)"/><rect style="fill:#fff;fill-opacity:1;fill-rule:evenodd;stroke:#000;stroke-width:2.37364411;stroke-linecap:round;stroke-linejoin:round;stroke-miterlimit:4;stroke-opacity:1;stroke-dasharray:none;stroke-dashoffset:0" width="31.134" height="23.031" x="536.267" y="-497.387" rx="0" ry="0" transform="matrix(.95195 -.30625 .00123 -1 0 0)"/><rect style="fill:#fff;fill-opacity:1;fill-rule:evenodd;stroke:#000;stroke-width:2.58647537;stroke-linecap:round;stroke-linejoin:round;stroke-miterlimit:4;stroke-opacity:1;stroke-dasharray:none;stroke-dashoffset:0" width="46.512" height="9.56" x="-459.022" y="-245.646" rx="0" ry="0" transform="matrix(-.80184 -.59754 -.0007 -1 0 0)"/><rect style="fill:#fff;fill-opacity:1;fill-rule:evenodd;stroke:#000;stroke-width:2.57546449;stroke-linecap:round;stroke-linejoin:round;stroke-miterlimit:4;stroke-opacity:1;stroke-dasharray:none;stroke-dashoffset:0" width="48.303" height="29.455" x="-221.057" y="691.349" rx="0" ry="0" transform="matrix(.95262 -.30418 .80676 .59088 0 0)"/><rect style="fill:#fff;fill-opacity:1;fill-rule:evenodd;stroke:#000;stroke-width:2.57546449;stroke-linecap:round;stroke-linejoin:round;stroke-miterlimit:4;stroke-opacity:1;stroke-dasharray:none;stroke-dashoffset:0" width="48.304" height="29.455" x="-216.171" y="685.579" rx="0" ry="0" transform="matrix(.95262 -.30418 .80676 .59088 0 0)"/><path style="fill:#fff;fill-opacity:1;fill-rule:evenodd;stroke:#000;stroke-width:2.37660551;stroke-linecap:round;stroke-linejoin:round;stroke-miterlimit:4;stroke-opacity:1;stroke-dasharray:none;stroke-dashoffset:0" transform="skewY(-18.34) scale(.9492 1)" d="M380.779 593.955h76.109v12.571h-76.109z"/><rect style="fill:#fff;fill-opacity:1;fill-rule:evenodd;stroke:#000;stroke-width:2.58647537;stroke-linecap:round;stroke-linejoin:round;stroke-miterlimit:4;stroke-opacity:1;stroke-dasharray:none;stroke-dashoffset:0" width="46.51" height="12.114" x="-449.888" y="-217.731" rx="0" ry="0" transform="matrix(-.80184 -.59754 -.0007 -1 0 0)"/><rect rx="29.911" style="fill:#fff;fill-opacity:1;fill-rule:evenodd;stroke:#000;stroke-width:2.37660527;stroke-linecap:round;stroke-linejoin:round;stroke-miterlimit:4;stroke-opacity:1;stroke-dasharray:none;stroke-dashoffset:0" width="109.186" height="129.442" x="367.711" y="468.307" ry="29.412" transform="skewY(-18.34) scale(.9492 1)"/><path style="fill:#fff;fill-opacity:1;fill-rule:evenodd;stroke:#000;stroke-width:5;stroke-linecap:round;stroke-linejoin:round;stroke-miterlimit:4;stroke-opacity:1;stroke-dasharray:none;stroke-dashoffset:0" d="M892.404 588.231c8-13.714 25.88-18.505 39.938-10.701 14.057 7.805 18.968 25.249 10.968 38.963-8 13.715-25.88 18.506-39.937 10.701-13.938-7.738-18.904-24.973-11.142-38.663" transform="matrix(.4631 -.15351 0 .4631 16.556 359.702)"/><rect style="fill:#fff;fill-opacity:1;fill-rule:evenodd;stroke:#000;stroke-width:2.31950951;stroke-linecap:round;stroke-linejoin:round;stroke-miterlimit:4;stroke-opacity:1;stroke-dasharray:none;stroke-dashoffset:0" width="37.875" height="23.725" x="26.773" y="638.064" rx="0" ry="0" transform="matrix(.69565 -.71838 .77393 .63327 0 0)"/><path style="fill:#fff;fill-opacity:1;fill-rule:evenodd;stroke:#000;stroke-width:4.21731663;stroke-linecap:round;stroke-linejoin:round;stroke-miterlimit:4;stroke-opacity:1;stroke-dasharray:none;stroke-dashoffset:0" d="M892.404 588.231c8-13.714 25.88-18.505 39.938-10.701 14.057 7.805 18.968 25.249 10.968 38.963-8 13.715-25.88 18.506-39.937 10.701-13.938-7.738-18.904-24.973-11.142-38.663" transform="matrix(.54904 -.182 0 .54904 40.856 223.358)"/><path style="fill:#fff;fill-opacity:1;fill-rule:evenodd;stroke:#000;stroke-width:4.21731663;stroke-linecap:round;stroke-linejoin:round;stroke-miterlimit:4;stroke-opacity:1;stroke-dasharray:none;stroke-dashoffset:0" d="M900.201 625.157c-12.904-9.513-15.46-27.43-5.709-40.02 9.751-12.59 28.117-15.083 41.02-5.57a28.84 28.84 0 0 1 7.263 7.784" transform="matrix(.54904 -.182 0 .54904 21.69 207.806)"/><rect style="fill:#fff;fill-opacity:1;fill-rule:evenodd;stroke:#000;stroke-width:2.58647561;stroke-linecap:round;stroke-linejoin:round;stroke-miterlimit:4;stroke-opacity:1;stroke-dasharray:none;stroke-dashoffset:0" width="138.74" height="20.648" x="-430.721" y="-571.442" rx="0" ry="0" transform="matrix(-.80184 -.59754 -.0007 -1 0 0)"/><rect style="fill:#fff;fill-opacity:1;fill-rule:evenodd;stroke:#000;stroke-width:2.37364411;stroke-linecap:round;stroke-linejoin:round;stroke-miterlimit:4;stroke-opacity:1;stroke-dasharray:none;stroke-dashoffset:0" width="274.017" height="21.102" x="364.636" y="-940.694" rx="0" ry="0" transform="matrix(.95195 -.30625 .00123 -1 0 0)"/><rect style="fill:#fff;fill-opacity:1;fill-rule:evenodd;stroke:#000;stroke-width:7.72639322;stroke-linecap:round;stroke-linejoin:bevel;stroke-miterlimit:4;stroke-opacity:1;stroke-dasharray:none;stroke-dashoffset:0" width="95.871" height="88.09" x="-512.032" y="978.13" rx="0" ry="0" transform="matrix(.95262 -.30418 .80676 .59088 0 0)"/><rect style="fill:#000;fill-opacity:1;fill-rule:evenodd;stroke:#000;stroke-width:2.57546449;stroke-linecap:round;stroke-linejoin:round;stroke-miterlimit:4;stroke-opacity:1;stroke-dasharray:none;stroke-dashoffset:0" width="14.501" height="88.089" x="-482.96" y="972.888" rx="0" ry="0" transform="matrix(.95262 -.30418 .80676 .59088 0 0)"/><rect style="fill:#000;fill-opacity:1;fill-rule:evenodd;stroke:#000;stroke-width:2.57546449;stroke-linecap:round;stroke-linejoin:round;stroke-miterlimit:4;stroke-opacity:1;stroke-dasharray:none;stroke-dashoffset:0" width="95.872" height="14.29" x="-506.396" y="1021.057" rx="0" ry="0" transform="matrix(.95262 -.30418 .80676 .59088 0 0)"/><path style="fill:none;stroke:#000;stroke-width:1.38927531;stroke-linecap:butt;stroke-linejoin:miter;stroke-miterlimit:4;stroke-opacity:1;stroke-dasharray:none;marker-start:none" d="m328.993 387.354-146.204 25.8"/><path style="fill:none;stroke:#000;stroke-width:1.38927531;stroke-linecap:butt;stroke-linejoin:miter;stroke-miterlimit:4;stroke-opacity:1;stroke-dasharray:none;marker-start:none" d="M375.893 527.732 230.886 652.085"/><path style="fill:none;stroke:#000;stroke-width:1.38927531;stroke-linecap:butt;stroke-linejoin:miter;stroke-miterlimit:4;stroke-opacity:1;stroke-dasharray:none;marker-start:none" d="m457.484 493.38 115.111 17.201"/><path style="fill:none;stroke:#000;stroke-width:1.38927531;stroke-linecap:butt;stroke-linejoin:miter;stroke-miterlimit:4;stroke-opacity:1;stroke-dasharray:none;marker-start:none" d="m555.395 400.1 34.4 21.17"/><path style="fill:none;stroke:#000;stroke-width:1.38927531;stroke-linecap:butt;stroke-linejoin:miter;stroke-miterlimit:4;stroke-opacity:1;stroke-dasharray:none;marker-start:none" d="m458.723 745.342 117.06 23.545"/><g transform="matrix(.4631 0 0 .4631 274.893 189.954)"><path transform="skewY(-18.34) scale(.9492 1)" style="fill:#fff;fill-opacity:1;fill-rule:evenodd;stroke:#000;stroke-width:5.13198233;stroke-linecap:round;stroke-linejoin:round;stroke-miterlimit:4;stroke-opacity:1;stroke-dasharray:none;stroke-dashoffset:0" d="M-136.757 673.55H-28.62v12.65h-108.137z"/><rect transform="matrix(.95262 -.30417 .80676 .59088 0 0)" ry="0" rx="0" y="604.025" x="-774.744" height="306.661" width="52.252" style="fill:#fff;fill-opacity:1;fill-rule:evenodd;stroke:#000;stroke-width:11.1229248;stroke-linecap:round;stroke-linejoin:round;stroke-miterlimit:4;stroke-opacity:1;stroke-dasharray:none;stroke-dashoffset:0"/><rect transform="matrix(.95262 -.30417 .80676 .59088 0 0)" ry="0" rx="0" y="664.158" x="-761.717" height="38.732" width="26.782" style="fill:#000;fill-opacity:1;fill-rule:evenodd;stroke:#000;stroke-width:5.5614624;stroke-linecap:round;stroke-linejoin:round;stroke-miterlimit:4;stroke-opacity:1;stroke-dasharray:none;stroke-dashoffset:0"/><rect transform="matrix(.95262 -.30417 .80676 .59088 0 0)" ry="0" rx="0" y="760.4" x="-760.742" height="38.732" width="26.782" style="fill:#000;fill-opacity:1;fill-rule:evenodd;stroke:#000;stroke-width:5.5614624;stroke-linecap:round;stroke-linejoin:round;stroke-miterlimit:4;stroke-opacity:1;stroke-dasharray:none;stroke-dashoffset:0"/><rect transform="matrix(.95262 -.30417 .80676 .59088 0 0)" ry="0" rx="0" y="677.689" x="-796.726" height="99.19" width="109.485" style="fill:#fff;fill-opacity:1;fill-rule:evenodd;stroke:#000;stroke-width:5.5614624;stroke-linecap:round;stroke-linejoin:round;stroke-miterlimit:4;stroke-opacity:1;stroke-dasharray:none;stroke-dashoffset:0"/><rect transform="matrix(-.80184 -.59754 -.0007 -1 0 0)" ry="0" rx="0" y="-828.294" x="164.465" height="13.497" width="100.438" style="fill:#fff;fill-opacity:1;fill-rule:evenodd;stroke:#000;stroke-width:5.58530283;stroke-linecap:round;stroke-linejoin:round;stroke-miterlimit:4;stroke-opacity:1;stroke-dasharray:none;stroke-dashoffset:0"/><rect transform="matrix(.95262 -.30417 .80676 .59088 0 0)" ry="0" rx="0" y="710.886" x="-755.019" height="38.732" width="26.782" style="fill:#000;fill-opacity:1;fill-rule:evenodd;stroke:#000;stroke-width:5.5614624;stroke-linecap:round;stroke-linejoin:round;stroke-miterlimit:4;stroke-opacity:1;stroke-dasharray:none;stroke-dashoffset:0"/><rect transform="matrix(-.80184 -.59754 -.0007 -1 0 0)" ry="0" rx="0" y="-816.502" x="166.059" height="13.497" width="100.439" style="fill:#fff;fill-opacity:1;fill-rule:evenodd;stroke:#000;stroke-width:5.58536673;stroke-linecap:round;stroke-linejoin:round;stroke-miterlimit:4;stroke-opacity:1;stroke-dasharray:none;stroke-dashoffset:0"/><path transform="skewY(-18.34) scale(.9492 1)" style="fill:#fff;fill-opacity:1;fill-rule:evenodd;stroke:#000;stroke-width:5.13191843;stroke-linecap:round;stroke-linejoin:round;stroke-miterlimit:4;stroke-opacity:1;stroke-dasharray:none;stroke-dashoffset:0" d="M-138.107 660.367h108.509v12.65h-108.509z"/><rect transform="matrix(.95262 -.30417 .80676 .59088 0 0)" ry="0" rx="0" y="808.32" x="-761.585" height="38.732" width="26.782" style="fill:#000;fill-opacity:1;fill-rule:evenodd;stroke:#000;stroke-width:5.5614624;stroke-linecap:round;stroke-linejoin:round;stroke-miterlimit:4;stroke-opacity:1;stroke-dasharray:none;stroke-dashoffset:0"/><rect transform="matrix(.95262 -.30417 .80676 .59088 0 0)" ry="0" rx="0" y="615.485" x="-762.337" height="38.732" width="26.782" style="fill:#000;fill-opacity:1;fill-rule:evenodd;stroke:#000;stroke-width:5.5614624;stroke-linecap:round;stroke-linejoin:round;stroke-miterlimit:4;stroke-opacity:1;stroke-dasharray:none;stroke-dashoffset:0"/><rect transform="matrix(.95262 -.30417 .80676 .59088 0 0)" ry="0" rx="0" y="856.24" x="-762.427" height="38.732" width="26.782" style="fill:#000;fill-opacity:1;fill-rule:evenodd;stroke:#000;stroke-width:5.5614624;stroke-linecap:round;stroke-linejoin:round;stroke-miterlimit:4;stroke-opacity:1;stroke-dasharray:none;stroke-dashoffset:0"/></g><path style="fill:none;stroke:#000;stroke-width:1.38927531;stroke-linecap:butt;stroke-linejoin:miter;stroke-miterlimit:4;stroke-opacity:1;stroke-dasharray:1.38927534,2.77855067;stroke-dashoffset:0;marker-start:none;marker-mid:url(#a);marker-end:none" d="m244.54 480.585 46.211-13.131 39.395-11.194"/><path style="fill:none;stroke:#000;stroke-width:1.38927531;stroke-linecap:butt;stroke-linejoin:miter;stroke-miterlimit:4;stroke-opacity:1;stroke-dasharray:1.38927534,2.77855067;stroke-dashoffset:0;marker-start:none;marker-mid:url(#a);marker-end:none" d="m271.122 502.897 46.212-13.131 39.395-11.194"/><path style="fill:none;stroke:#000;stroke-width:1.38927531;stroke-linecap:butt;stroke-linejoin:miter;stroke-miterlimit:4;stroke-opacity:1;stroke-dasharray:none;marker-start:none" d="m199.22 526.061-44.543 24.17"/><text xml:space="preserve" style="font-size:20px;font-style:normal;font-variant:normal;font-weight:400;font-stretch:normal;text-align:justify;text-anchor:start;fill:#000;fill-opacity:1;stroke:none;font-family:Arial;-inkscape-font-specification:Arial" x="115.157" y="402.834"><tspan x="115.157" y="402.834">Enlarger</tspan><tspan x="115.157" y="427.834">head</tspan></text><text xml:space="preserve" style="font-size:20px;font-style:normal;font-variant:normal;font-weight:400;font-stretch:normal;text-align:justify;text-anchor:start;fill:#000;fill-opacity:1;stroke:none;font-family:Calibri;-inkscape-font-specification:Calibri" x="106.066" y="551.327"><tspan x="106.066" y="551.327" style="-inkscape-font-specification:Arial;font-family:Arial;font-weight:400;font-style:normal;font-stretch:normal;font-variant:normal">Film </tspan><tspan x="106.066" y="576.327" style="-inkscape-font-specification:Arial;font-family:Arial;font-weight:400;font-style:normal;font-stretch:normal;font-variant:normal">Carrier</tspan></text><text xml:space="preserve" style="font-size:20px;font-style:normal;font-variant:normal;font-weight:400;font-stretch:normal;text-align:justify;text-anchor:start;fill:#000;fill-opacity:1;stroke:none;font-family:Calibri;-inkscape-font-specification:Calibri" x="581.848" y="516.981"><tspan x="581.848" y="516.981" style="-inkscape-font-specification:Arial;font-family:Arial;font-weight:400;font-style:normal;font-stretch:normal;font-variant:normal">Focus knob</tspan></text><text xml:space="preserve" style="font-size:20px;font-style:normal;font-variant:normal;font-weight:400;font-stretch:normal;text-align:justify;text-anchor:start;fill:#000;fill-opacity:1;stroke:none;font-family:Calibri;-inkscape-font-specification:Calibri" x="597" y="418.997"><tspan x="597" y="418.997" style="-inkscape-font-specification:Arial;font-family:Arial;font-weight:400;font-style:normal;font-stretch:normal;font-variant:normal">Elevation </tspan><tspan x="597" y="443.997" style="-inkscape-font-specification:Arial;font-family:Arial;font-weight:400;font-style:normal;font-stretch:normal;font-variant:normal">knob</tspan></text><text xml:space="preserve" style="font-size:20px;font-style:normal;font-variant:normal;font-weight:400;font-stretch:normal;text-align:justify;text-anchor:start;fill:#000;fill-opacity:1;stroke:none;font-family:Calibri;-inkscape-font-specification:Calibri" x="585.889" y="775.58"><tspan x="585.889" y="775.58" style="-inkscape-font-specification:Arial;font-family:Arial;font-weight:400;font-style:normal;font-stretch:normal;font-variant:normal">Baseboard, </tspan><tspan x="585.889" y="800.58" style="-inkscape-font-specification:Arial;font-family:Arial;font-weight:400;font-style:normal;font-stretch:normal;font-variant:normal">easel</tspan></text><text xml:space="preserve" style="font-size:20px;font-style:normal;font-variant:normal;font-weight:400;font-stretch:normal;text-align:justify;text-anchor:start;fill:#000;fill-opacity:1;stroke:none;font-family:Calibri;-inkscape-font-specification:Calibri" x="154.553" y="671.535"><tspan x="154.553" y="671.535" style="-inkscape-font-specification:Arial;font-family:Arial;font-weight:400;font-style:normal;font-stretch:normal;font-variant:normal">Enlarger lens</tspan></text></g></svg>